# xmcd CD database file
#
# Track frame offsets:
#	150
#	13209
#	27157
#	38062
#	48867
#	64664
#	76943
#	86459
#	100201
#	110525
#	123145
#	133989
#	144908
#	157833
#	170910
#	182896
#	194946
#	206493
#	220046
#	232926
#	244715
#	263628
#	276810
#	291848
#	302485
#
# Disc length: 4243 seconds
#
# Revision: 0
# Processed by: cddbd v1.5.2PL0 Copyright (c) Steve Scherf et al.
# Submitted via: jetAudio 7
#
DISCID=5d109119
DTITLE=Leon Redbone - Sugar+Whistling In The Wind
DYEAR=1900
DGENRE=Blues
TTITLE0=Ghost of The St.Louis Blues
TTITLE1=Roll Along Kentucky Moon
TTITLE2=Right Or Wrong
TTITLE3=Дорожка 4
TTITLE4=Дорожка 5
TTITLE5=Дорожка 6
TTITLE6=Дорожка 7
TTITLE7=Дорожка 8
TTITLE8=Дорожка 9
TTITLE9=Дорожка 10
TTITLE10=Дорожка 11
TTITLE11=Дорожка 12
TTITLE12=Дорожка 13
TTITLE13=Дорожка 14
TTITLE14=Дорожка 15
TTITLE15=Дорожка 16
TTITLE16=Дорожка 17
TTITLE17=Дорожка 18
TTITLE18=Дорожка 19
TTITLE19=Дорожка 20
TTITLE20=Дорожка 21
TTITLE21=Дорожка 22
TTITLE22=Дорожка 23
TTITLE23=Дорожка 24
TTITLE24=Дорожка 25
EXTD=
EXTT0=
EXTT1=
EXTT2=
EXTT3=
EXTT4=
EXTT5=
EXTT6=
EXTT7=
EXTT8=
EXTT9=
EXTT10=
EXTT11=
EXTT12=
EXTT13=
EXTT14=
EXTT15=
EXTT16=
EXTT17=
EXTT18=
EXTT19=
EXTT20=
EXTT21=
EXTT22=
EXTT23=
EXTT24=
PLAYORDER=
